<svg width="422" height="196" viewBox="0 0 422 196" fill="none" xmlns="http://www.w3.org/2000/svg">
<circle cx="269.182" cy="4.45455" r="4.45455" fill="#6B98B9" fill-opacity="0.5"/>
<circle cx="269.182" cy="31.1818" r="4.45455" fill="#6B98B9" fill-opacity="0.5"/>
<circle cx="269.182" cy="57.9091" r="4.45455" fill="#6B98B9" fill-opacity="0.5"/>
<circle cx="269.182" cy="84.6364" r="4.45455" fill="#6B98B9" fill-opacity="0.5"/>
<circle cx="269.182" cy="111.364" r="4.45455" fill="#6B98B9" fill-opacity="0.5"/>
<circle cx="269.182" cy="138.091" r="4.45455" fill="#6B98B9" fill-opacity="0.5"/>
<circle cx="269.182" cy="164.818" r="4.45455" fill="#6B98B9" fill-opacity="0.5"/>
<circle cx="269.182" cy="191.545" r="4.45455" fill="#6B98B9" fill-opacity="0.5"/>
<circle cx="295.909" cy="4.45455" r="4.45455" fill="#6B98B9" fill-opacity="0.5"/>
<circle cx="295.909" cy="31.1818" r="4.45455" fill="#6B98B9" fill-opacity="0.5"/>
<circle cx="295.909" cy="57.9091" r="4.45455" fill="#6B98B9" fill-opacity="0.5"/>
<circle cx="295.909" cy="84.6364" r="4.45455" fill="#6B98B9" fill-opacity="0.5"/>
<circle cx="295.909" cy="111.364" r="4.45455" fill="#6B98B9" fill-opacity="0.5"/>
<circle cx="295.909" cy="138.091" r="4.45455" fill="#6B98B9" fill-opacity="0.5"/>
<circle cx="295.909" cy="164.818" r="4.45455" fill="#6B98B9" fill-opacity="0.5"/>
<circle cx="295.909" cy="191.545" r="4.45455" fill="#6B98B9" fill-opacity="0.5"/>
<circle cx="322.636" cy="4.45455" r="4.45455" fill="#6B98B9" fill-opacity="0.5"/>
<circle cx="322.636" cy="31.1818" r="4.45455" fill="#6B98B9" fill-opacity="0.5"/>
<circle cx="322.636" cy="57.9091" r="4.45455" fill="#6B98B9" fill-opacity="0.5"/>
<circle cx="322.636" cy="84.6364" r="4.45455" fill="#6B98B9" fill-opacity="0.5"/>
<circle cx="322.636" cy="111.364" r="4.45455" fill="#6B98B9" fill-opacity="0.5"/>
<circle cx="322.636" cy="138.091" r="4.45455" fill="#6B98B9" fill-opacity="0.5"/>
<circle cx="322.636" cy="164.818" r="4.45455" fill="#6B98B9" fill-opacity="0.5"/>
<circle cx="322.636" cy="191.545" r="4.45455" fill="#6B98B9" fill-opacity="0.5"/>
<circle cx="349.364" cy="4.45455" r="4.45455" fill="#6B98B9" fill-opacity="0.5"/>
<circle cx="349.364" cy="31.1818" r="4.45455" fill="#6B98B9" fill-opacity="0.5"/>
<circle cx="349.364" cy="57.9091" r="4.45455" fill="#6B98B9" fill-opacity="0.5"/>
<circle cx="349.364" cy="84.6364" r="4.45455" fill="#6B98B9" fill-opacity="0.5"/>
<circle cx="349.364" cy="111.364" r="4.45455" fill="#6B98B9" fill-opacity="0.5"/>
<circle cx="349.364" cy="138.091" r="4.45455" fill="#6B98B9" fill-opacity="0.5"/>
<circle cx="349.364" cy="164.818" r="4.45455" fill="#6B98B9" fill-opacity="0.5"/>
<circle cx="349.364" cy="191.545" r="4.45455" fill="#6B98B9" fill-opacity="0.5"/>
<circle cx="376.091" cy="4.45455" r="4.45455" fill="#6B98B9" fill-opacity="0.5"/>
<circle cx="376.091" cy="31.1818" r="4.45455" fill="#6B98B9" fill-opacity="0.5"/>
<circle cx="376.091" cy="57.9091" r="4.45455" fill="#6B98B9" fill-opacity="0.5"/>
<circle cx="376.091" cy="84.6364" r="4.45455" fill="#6B98B9" fill-opacity="0.5"/>
<circle cx="376.091" cy="111.364" r="4.45455" fill="#6B98B9" fill-opacity="0.5"/>
<circle cx="376.091" cy="138.091" r="4.45455" fill="#6B98B9" fill-opacity="0.5"/>
<circle cx="376.091" cy="164.818" r="4.45455" fill="#6B98B9" fill-opacity="0.5"/>
<circle cx="376.091" cy="191.545" r="4.45455" fill="#6B98B9" fill-opacity="0.5"/>
<circle cx="402.818" cy="4.45455" r="4.45455" fill="#6B98B9" fill-opacity="0.5"/>
<circle cx="402.818" cy="31.1818" r="4.45455" fill="#6B98B9" fill-opacity="0.5"/>
<circle cx="402.818" cy="57.9091" r="4.45455" fill="#6B98B9" fill-opacity="0.5"/>
<circle cx="402.818" cy="84.6364" r="4.45455" fill="#6B98B9" fill-opacity="0.5"/>
<circle cx="402.818" cy="111.364" r="4.45455" fill="#6B98B9" fill-opacity="0.5"/>
<circle cx="402.818" cy="138.091" r="4.45455" fill="#6B98B9" fill-opacity="0.5"/>
<circle cx="402.818" cy="164.818" r="4.45455" fill="#6B98B9" fill-opacity="0.5"/>
<circle cx="402.818" cy="191.545" r="4.45455" fill="#6B98B9" fill-opacity="0.5"/>
<circle cx="4.45467" cy="4.45455" r="4.45455" fill="#6B98B9" fill-opacity="0.5"/>
<circle cx="4.45467" cy="31.1818" r="4.45455" fill="#6B98B9" fill-opacity="0.5"/>
<circle cx="4.45467" cy="57.9091" r="4.45455" fill="#6B98B9" fill-opacity="0.5"/>
<circle cx="4.45467" cy="84.6364" r="4.45455" fill="#6B98B9" fill-opacity="0.5"/>
<circle cx="4.45467" cy="111.364" r="4.45455" fill="#6B98B9" fill-opacity="0.5"/>
<circle cx="4.45467" cy="138.091" r="4.45455" fill="#6B98B9" fill-opacity="0.5"/>
<circle cx="4.45467" cy="164.818" r="4.45455" fill="#6B98B9" fill-opacity="0.5"/>
<circle cx="4.45467" cy="191.545" r="4.45455" fill="#6B98B9" fill-opacity="0.5"/>
<circle cx="31.1819" cy="4.45455" r="4.45455" fill="#6B98B9" fill-opacity="0.5"/>
<circle cx="31.1819" cy="31.1818" r="4.45455" fill="#6B98B9" fill-opacity="0.5"/>
<circle cx="31.1819" cy="57.9091" r="4.45455" fill="#6B98B9" fill-opacity="0.5"/>
<circle cx="31.1819" cy="84.6364" r="4.45455" fill="#6B98B9" fill-opacity="0.5"/>
<circle cx="31.1819" cy="111.364" r="4.45455" fill="#6B98B9" fill-opacity="0.5"/>
<circle cx="31.1819" cy="138.091" r="4.45455" fill="#6B98B9" fill-opacity="0.5"/>
<circle cx="31.1819" cy="164.818" r="4.45455" fill="#6B98B9" fill-opacity="0.5"/>
<circle cx="31.1819" cy="191.545" r="4.45455" fill="#6B98B9" fill-opacity="0.5"/>
<circle cx="57.9092" cy="4.45455" r="4.45455" fill="#6B98B9" fill-opacity="0.5"/>
<circle cx="57.9092" cy="31.1818" r="4.45455" fill="#6B98B9" fill-opacity="0.5"/>
<circle cx="57.9092" cy="57.9091" r="4.45455" fill="#6B98B9" fill-opacity="0.5"/>
<circle cx="57.9092" cy="84.6364" r="4.45455" fill="#6B98B9" fill-opacity="0.5"/>
<circle cx="57.9092" cy="111.364" r="4.45455" fill="#6B98B9" fill-opacity="0.5"/>
<circle cx="57.9092" cy="138.091" r="4.45455" fill="#6B98B9" fill-opacity="0.5"/>
<circle cx="57.9092" cy="164.818" r="4.45455" fill="#6B98B9" fill-opacity="0.5"/>
<circle cx="57.9092" cy="191.545" r="4.45455" fill="#6B98B9" fill-opacity="0.5"/>
<circle cx="84.6365" cy="4.45455" r="4.45455" fill="#6B98B9" fill-opacity="0.5"/>
<circle cx="84.6365" cy="31.1818" r="4.45455" fill="#6B98B9" fill-opacity="0.5"/>
<circle cx="84.6365" cy="57.9091" r="4.45455" fill="#6B98B9" fill-opacity="0.5"/>
<circle cx="84.6365" cy="84.6364" r="4.45455" fill="#6B98B9" fill-opacity="0.5"/>
<circle cx="84.6365" cy="111.364" r="4.45455" fill="#6B98B9" fill-opacity="0.5"/>
<circle cx="84.6365" cy="138.091" r="4.45455" fill="#6B98B9" fill-opacity="0.5"/>
<circle cx="84.6365" cy="164.818" r="4.45455" fill="#6B98B9" fill-opacity="0.5"/>
<circle cx="84.6365" cy="191.545" r="4.45455" fill="#6B98B9" fill-opacity="0.5"/>
<circle cx="111.364" cy="4.45455" r="4.45455" fill="#6B98B9" fill-opacity="0.5"/>
<circle cx="111.364" cy="31.1818" r="4.45455" fill="#6B98B9" fill-opacity="0.5"/>
<circle cx="111.364" cy="57.9091" r="4.45455" fill="#6B98B9" fill-opacity="0.5"/>
<circle cx="111.364" cy="84.6364" r="4.45455" fill="#6B98B9" fill-opacity="0.5"/>
<circle cx="111.364" cy="111.364" r="4.45455" fill="#6B98B9" fill-opacity="0.5"/>
<circle cx="111.364" cy="138.091" r="4.45455" fill="#6B98B9" fill-opacity="0.5"/>
<circle cx="111.364" cy="164.818" r="4.45455" fill="#6B98B9" fill-opacity="0.5"/>
<circle cx="111.364" cy="191.545" r="4.45455" fill="#6B98B9" fill-opacity="0.5"/>
<circle cx="138.091" cy="4.45455" r="4.45455" fill="#6B98B9" fill-opacity="0.5"/>
<circle cx="138.091" cy="31.1818" r="4.45455" fill="#6B98B9" fill-opacity="0.5"/>
<circle cx="138.091" cy="57.9091" r="4.45455" fill="#6B98B9" fill-opacity="0.5"/>
<circle cx="138.091" cy="84.6364" r="4.45455" fill="#6B98B9" fill-opacity="0.5"/>
<circle cx="138.091" cy="111.364" r="4.45455" fill="#6B98B9" fill-opacity="0.5"/>
<circle cx="138.091" cy="138.091" r="4.45455" fill="#6B98B9" fill-opacity="0.5"/>
<circle cx="138.091" cy="164.818" r="4.45455" fill="#6B98B9" fill-opacity="0.5"/>
<circle cx="138.091" cy="191.545" r="4.45455" fill="#6B98B9" fill-opacity="0.5"/>
<circle cx="164.818" cy="4.45455" r="4.45455" fill="#6B98B9" fill-opacity="0.5"/>
<circle cx="164.818" cy="31.1818" r="4.45455" fill="#6B98B9" fill-opacity="0.5"/>
<circle cx="164.818" cy="57.9091" r="4.45455" fill="#6B98B9" fill-opacity="0.5"/>
<circle cx="164.818" cy="84.6364" r="4.45455" fill="#6B98B9" fill-opacity="0.5"/>
<circle cx="164.818" cy="111.364" r="4.45455" fill="#6B98B9" fill-opacity="0.5"/>
<circle cx="164.818" cy="138.091" r="4.45455" fill="#6B98B9" fill-opacity="0.5"/>
<circle cx="164.818" cy="164.818" r="4.45455" fill="#6B98B9" fill-opacity="0.5"/>
<circle cx="164.818" cy="191.545" r="4.45455" fill="#6B98B9" fill-opacity="0.5"/>
<circle cx="191.546" cy="4.45455" r="4.45455" fill="#6B98B9" fill-opacity="0.5"/>
<circle cx="191.546" cy="31.1818" r="4.45455" fill="#6B98B9" fill-opacity="0.5"/>
<circle cx="191.546" cy="57.9091" r="4.45455" fill="#6B98B9" fill-opacity="0.5"/>
<circle cx="191.546" cy="84.6364" r="4.45455" fill="#6B98B9" fill-opacity="0.5"/>
<circle cx="191.546" cy="111.364" r="4.45455" fill="#6B98B9" fill-opacity="0.5"/>
<circle cx="191.546" cy="138.091" r="4.45455" fill="#6B98B9" fill-opacity="0.5"/>
<circle cx="191.546" cy="164.818" r="4.45455" fill="#6B98B9" fill-opacity="0.5"/>
<circle cx="191.546" cy="191.545" r="4.45455" fill="#6B98B9" fill-opacity="0.5"/>
<circle cx="218.273" cy="4.45455" r="4.45455" fill="#6B98B9" fill-opacity="0.5"/>
<circle cx="218.273" cy="31.1818" r="4.45455" fill="#6B98B9" fill-opacity="0.5"/>
<circle cx="218.273" cy="57.9091" r="4.45455" fill="#6B98B9" fill-opacity="0.5"/>
<circle cx="218.273" cy="84.6364" r="4.45455" fill="#6B98B9" fill-opacity="0.5"/>
<circle cx="218.273" cy="111.364" r="4.45455" fill="#6B98B9" fill-opacity="0.5"/>
<circle cx="218.273" cy="138.091" r="4.45455" fill="#6B98B9" fill-opacity="0.5"/>
<circle cx="218.273" cy="164.818" r="4.45455" fill="#6B98B9" fill-opacity="0.5"/>
<circle cx="218.273" cy="191.545" r="4.45455" fill="#6B98B9" fill-opacity="0.5"/>
<circle cx="245" cy="4.45455" r="4.45455" fill="#6B98B9" fill-opacity="0.5"/>
<circle cx="245" cy="31.1818" r="4.45455" fill="#6B98B9" fill-opacity="0.5"/>
<circle cx="245" cy="57.9091" r="4.45455" fill="#6B98B9" fill-opacity="0.5"/>
<circle cx="245" cy="84.6364" r="4.45455" fill="#6B98B9" fill-opacity="0.5"/>
<circle cx="245" cy="111.364" r="4.45455" fill="#6B98B9" fill-opacity="0.5"/>
<circle cx="245" cy="138.091" r="4.45455" fill="#6B98B9" fill-opacity="0.5"/>
<circle cx="245" cy="164.818" r="4.45455" fill="#6B98B9" fill-opacity="0.5"/>
<circle cx="245" cy="191.545" r="4.45455" fill="#6B98B9" fill-opacity="0.5"/>
</svg>
