<svg width="24" height="24" viewBox="0 0 24 24" fill="none" xmlns="http://www.w3.org/2000/svg">
<path d="M20.717 13.2185C20.9979 12.9372 21.1557 12.556 21.1557 12.1585C21.1557 11.761 20.9979 11.3797 20.717 11.0985L15.061 5.43948C14.7796 5.15809 14.398 5 14 5C13.6021 5 13.2204 5.15809 12.939 5.43948C12.6576 5.72088 12.4995 6.10253 12.4995 6.50048C12.4995 6.89843 12.6576 7.28009 12.939 7.56148L16.035 10.6585L4.50002 10.6585C4.1022 10.6585 3.72067 10.8165 3.43936 11.0978C3.15806 11.3791 3.00002 11.7607 3.00002 12.1585C3.00002 12.5563 3.15806 12.9378 3.43936 13.2191C3.72067 13.5004 4.1022 13.6585 4.50002 13.6585L16.035 13.6585L12.939 16.7545C12.7997 16.8938 12.6892 17.0592 12.6138 17.2413C12.5384 17.4233 12.4995 17.6184 12.4995 17.8155C12.4995 18.0125 12.5384 18.2076 12.6138 18.3897C12.6892 18.5717 12.7997 18.7371 12.939 18.8765C13.0784 19.0158 13.2438 19.1263 13.4258 19.2017C13.6079 19.2771 13.803 19.316 14 19.316C14.1971 19.316 14.3922 19.2771 14.5742 19.2017C14.7563 19.1263 14.9217 19.0158 15.061 18.8765L20.717 13.2185Z" fill="#173C57"/>
</svg>
