<svg width="2327" height="512" viewBox="0 0 2327 512" fill="none" xmlns="http://www.w3.org/2000/svg">
<path d="M315.422 203.919C246.392 164.058 134.867 164.088 66.3341 203.919C32.1883 223.767 15.1191 249.735 15.1191 275.735L15.0588 298.993C14.9835 325.286 32.3313 351.586 67.072 371.652C136.056 411.482 247.59 411.497 316.168 371.652C350.231 351.864 367.27 325.948 367.345 300.009L367.405 277.715V276.563C367.465 250.293 350.14 223.97 315.422 203.919ZM290.733 333.485C236.25 365.154 147.328 365.154 92.4838 333.485C70.0612 320.542 56.7567 304.279 52.5779 287.405C56.7793 270.818 69.8278 254.84 91.776 242.101C146.259 210.439 235.189 210.439 290.025 242.093C312.448 255.044 325.752 271.307 329.916 288.196C325.722 304.783 312.651 320.745 290.733 333.485Z" fill="#EDEEF2"/>
<path d="M91.7761 242.101C146.259 210.432 235.189 210.432 290.026 242.093C317.621 258.025 331.4 278.987 331.347 299.919L331.407 276.465C331.467 255.533 317.689 234.579 290.086 218.639C235.257 186.985 146.327 186.985 91.8364 218.654C64.7681 234.383 51.2227 255.014 51.1625 275.667L51.0947 299.113C51.155 278.46 64.7079 257.83 91.7761 242.101Z" fill="#C6C6CE"/>
<path d="M316.235 348.205C247.65 388.066 136.132 388.036 67.1398 348.205C32.3991 328.162 15.0588 301.847 15.1341 275.569L15.0588 299.008C14.9835 325.286 32.3313 351.601 67.072 371.659C136.064 411.49 247.59 411.512 316.175 371.659C350.223 351.864 367.27 325.956 367.345 300.017L367.405 276.57C367.33 302.517 350.291 328.418 316.235 348.205Z" fill="#C6C6CE"/>
<path d="M315.429 203.919C384.414 243.75 384.775 308.375 316.235 348.205C247.65 388.066 136.132 388.036 67.1396 348.205C-1.89762 308.36 -2.25903 243.787 66.3339 203.927C134.874 164.096 246.4 164.073 315.437 203.927L315.429 203.919ZM92.4836 333.485C147.32 365.146 236.25 365.146 290.733 333.485C345.216 301.824 344.93 250.308 290.085 218.647C235.256 186.985 146.326 186.985 91.836 218.647C37.3457 250.308 37.6468 301.832 92.476 333.493M392.214 369.822C390.008 368.542 386.944 368.715 383.556 370.673C376.832 374.551 371.411 383.947 371.433 391.672C371.441 395.512 372.788 398.216 374.972 399.48L324.645 370.229C322.462 368.956 321.107 366.261 321.092 362.421C321.077 354.703 326.498 345.299 333.221 341.414C336.61 339.464 339.674 339.283 341.88 340.57L392.214 369.822Z" fill="#E4E7F1"/>
<path d="M496.941 420.646C496.986 437.88 484.887 458.842 469.903 467.494C462.268 471.891 455.371 472.26 450.424 469.293L450.312 469.218L344.486 407.725C339.607 404.887 336.595 398.871 336.557 390.31C336.527 373.09 348.619 352.128 363.61 343.477C371.162 339.11 377.992 338.718 382.916 341.579L488.674 403.042C488.764 403.102 488.877 403.147 488.975 403.208C493.869 406.023 496.919 412.055 496.941 420.646Z" fill="#382E49"/>
<path d="M489.035 403.245C484.096 400.384 477.259 400.776 469.722 405.143C454.731 413.794 442.631 434.756 442.669 451.976C442.699 460.529 445.718 466.56 450.582 469.384L344.478 407.718C339.606 404.887 336.595 398.871 336.565 390.317C336.519 373.097 348.612 352.136 363.618 343.469C371.162 339.117 377.991 338.718 382.923 341.587L489.035 403.245Z" fill="#205175"/>
<path d="M489.035 403.245C484.096 400.384 477.259 400.775 469.722 405.135C454.731 413.794 442.624 434.748 442.677 451.968C442.699 460.529 445.719 466.56 450.583 469.383L344.486 407.725C339.607 404.887 336.595 398.871 336.557 390.31C336.527 373.09 348.619 352.128 363.61 343.477C364.687 342.852 365.756 342.302 366.81 341.835C365.982 344.794 365.553 347.881 365.553 351.059C365.553 373.233 386.711 391.198 412.792 391.198C426.232 391.198 438.362 386.439 446.953 378.797L489.035 403.245Z" fill="#173C57"/>
<path d="M469.723 405.135C484.706 396.484 496.889 403.426 496.941 420.646C496.987 437.873 484.887 458.842 469.896 467.494C454.912 476.152 442.722 469.203 442.677 451.983C442.624 434.756 454.724 413.794 469.723 405.135Z" fill="#205175"/>
<path d="M329.939 156.235L329.954 156.28L329.946 156.243L329.939 156.235ZM326.55 224.527C326.535 224.527 326.528 224.504 326.513 224.497C326.724 223.925 326.739 223.895 326.55 224.527Z" fill="#5D35A6"/>
<path d="M222.321 322.304L222.441 322.199C222.75 319.925 223.081 317.749 223.368 315.535C224.196 309.496 224.986 303.428 224.497 297.374C222.773 278.52 206.065 262.114 187.211 260.781C183.688 260.563 180.073 260.744 176.602 259.96C168.885 258.138 163.162 251.151 160.896 243.524C158.637 235.896 159.435 227.674 161.069 219.904C162.462 213.466 164.322 206.509 161.453 200.666C158.351 194.372 150.475 191.624 143.511 192.595C136.606 193.596 130.515 197.564 124.996 201.909C120.802 205.229 116.638 208.858 111.541 210.552C89.8033 217.766 69.4513 186.383 47.7139 192.309L47.6461 192.474C45.673 162.429 53.3182 132.537 69.4739 107.128C110.118 42.9252 193.574 22.2343 259.155 58.7143C258.357 58.2927 257.544 57.8861 256.745 57.4795C248.553 57.8108 240.429 59.904 234.135 65.0315C226.153 71.4692 222.313 83.6668 227.667 92.431C230.92 97.7769 237.395 101.948 237.214 108.243C237.064 113.077 232.531 116.924 227.78 117.956C223.036 118.972 218.104 117.805 213.376 116.525C205.048 114.146 196.472 111.405 187.912 112.791C179.418 114.191 171.061 121.374 171.814 129.973C172.296 136.034 176.934 140.845 181.278 145.077C188.318 152.004 196.616 159.405 206.502 158.871C211.23 158.592 215.733 156.439 220.521 156.19C230.972 155.708 239.646 164.638 244.239 174.125C248.779 183.56 250.827 194.251 256.391 203.151C259.433 207.992 263.665 212.382 269.131 214.129C274.598 215.876 281.329 214.317 284.454 209.513C287.315 204.981 288.053 197.451 293.384 197.173C295.01 197.082 296.546 197.835 297.939 198.558C307.983 204.183 315.219 213.617 323.418 221.636C324.42 222.637 325.466 223.608 326.513 224.497C325.368 227.607 318.532 246.95 310.46 259.704C290.469 291.362 258.797 313.857 222.321 322.304Z" fill="#205175"/>
<path d="M326.55 224.527C326.535 224.527 326.528 224.504 326.513 224.497C326.724 223.925 326.739 223.895 326.55 224.527Z" fill="#5D35A6"/>
<path d="M111.541 210.552C89.8034 217.766 69.4514 186.383 47.714 192.309L47.6463 192.474C45.6668 162.431 53.3011 132.537 69.4439 107.121C78.6796 92.5005 90.5094 79.6908 104.35 69.3233C91.8364 103.552 93.7338 144.738 112.858 182.106C116.387 189.009 120.443 195.629 124.988 201.909C120.794 205.237 116.631 208.858 111.541 210.552ZM222.344 322.281L222.442 322.199C222.75 319.925 223.082 317.749 223.368 315.535C224.196 309.496 224.986 303.428 224.497 297.374C222.773 278.52 206.065 262.114 187.211 260.781C183.688 260.563 180.074 260.744 176.602 259.96C168.885 258.138 163.162 251.151 160.896 243.524C160.186 241.083 159.751 238.57 159.601 236.032C196.262 261.534 242.477 267.52 281.532 247.529C304.663 235.693 321.898 216.493 332.235 193.513C330.589 217.044 323.097 239.793 310.438 259.697C290.464 291.349 258.806 313.839 222.344 322.281Z" fill="#173C57"/>
<path d="M326.551 224.527C325.465 223.609 324.42 222.645 323.418 221.636C315.219 213.609 307.983 204.168 297.946 198.566C296.546 197.828 295.01 197.082 293.384 197.173C288.053 197.451 287.322 204.973 284.454 209.506C281.329 214.325 274.598 215.876 269.139 214.136C263.68 212.397 259.441 207.992 256.384 203.151C250.82 194.259 248.779 183.56 244.239 174.118C239.646 164.638 230.965 155.716 220.522 156.19C215.733 156.439 211.23 158.6 206.502 158.878C196.608 159.405 188.318 151.996 181.278 145.077C176.949 140.838 172.303 136.041 171.806 129.98C171.061 121.367 179.411 114.191 187.919 112.783C196.473 111.413 205.041 114.146 213.391 116.525C218.105 117.79 223.029 118.972 227.787 117.956C232.531 116.924 237.064 113.077 237.214 108.243C237.395 101.941 230.927 97.7769 227.674 92.431C222.329 83.6668 226.169 71.4692 234.127 65.024C240.429 59.904 248.546 57.8033 256.745 57.472C259.983 59.0757 263.146 60.928 266.285 62.9158C321.529 97.8899 344.553 164.728 326.551 224.527Z" fill="#64BCA6"/>
<path d="M293.376 197.188C288.068 197.466 287.315 205.003 284.469 209.483C281.329 214.317 274.598 215.861 269.162 214.136C263.665 212.397 259.449 207.985 256.377 203.144C250.835 194.274 248.795 183.567 244.232 174.133C239.631 164.623 230.98 155.701 220.529 156.175C215.74 156.454 211.23 158.607 206.487 158.863C196.601 159.42 188.303 152.011 181.263 145.077C176.919 140.838 172.303 136.049 171.799 130.003C171.083 121.367 179.426 114.176 187.934 112.791C196.443 111.405 205.056 114.146 213.361 116.518C218.105 117.798 223.044 118.972 227.757 117.941C232.539 116.924 237.079 113.062 237.199 108.228C237.372 101.948 230.95 97.7619 227.69 92.4461C222.351 83.6819 226.161 71.4541 234.157 65.0315C240.437 59.9115 248.539 57.8259 256.738 57.5021C259.976 59.0682 263.161 60.9355 266.3 62.9308L267.505 63.744C241.755 79.7816 234.097 116.977 250.579 149.165C267.618 182.453 304.076 197.903 332.589 184.162C332.505 197.832 330.474 211.421 326.558 224.52C325.459 223.62 324.413 222.657 323.426 221.636C315.234 213.594 307.976 204.175 297.947 198.551C296.569 197.828 295.025 197.082 293.376 197.188Z" fill="#4DA690"/>
<path d="M102.249 159.676C94.6671 158.456 88.8468 152.448 84.1334 146.334C79.4727 140.258 75.2186 133.534 68.6906 129.468C65.8294 127.736 62.7424 126.607 59.4746 125.877C62.2454 119.492 65.6261 113.205 69.4737 107.128C77.8775 93.8358 88.429 82.03 100.698 72.192C101.022 73.216 101.285 74.2099 101.466 75.2188C103.356 85.6696 98.8459 98.1082 105.698 106.255C111.066 112.64 121.118 113.257 126.464 119.552C131.215 125.252 130.665 133.783 128.12 140.755C124.069 151.62 113.686 161.536 102.257 159.676H102.249Z" fill="#64BCA6"/>
<path d="M102.227 159.676C94.6675 158.464 88.8322 152.448 84.1113 146.334C79.4581 140.235 75.2266 133.512 68.7061 129.476C65.8513 127.763 62.7239 126.554 59.46 125.899C62.2233 119.499 65.6266 113.205 69.4741 107.159C77.8552 93.8535 88.4041 82.0449 100.683 72.2221C101.337 74.1344 101.717 76.1293 101.813 78.1478C101.477 78.2771 101.15 78.428 100.834 78.5995C83.3658 87.5445 77.4778 111.006 87.7028 130.989C94.4491 144.166 106.504 152.508 118.95 154.142C114.236 158.298 108.379 160.715 102.235 159.676H102.227Z" fill="#4DA690"/>
<path d="M222.313 322.304C203.894 326.616 184.8 327.21 166.149 324.05C147.498 320.89 129.665 314.04 113.694 303.902C73.615 278.528 50.4922 236.461 47.6611 192.474L47.7214 192.309C69.4588 186.383 89.8108 217.766 111.548 210.552C116.646 208.858 120.809 205.229 125.003 201.909C130.522 197.572 136.614 193.596 143.526 192.595C150.483 191.616 158.359 194.372 161.461 200.666C164.329 206.509 162.47 213.466 161.084 219.904C159.443 227.674 158.645 235.896 160.903 243.524C163.162 251.143 168.885 258.138 176.61 259.96C180.073 260.744 183.695 260.563 187.219 260.789C206.072 262.114 222.78 278.52 224.504 297.374C224.994 303.428 224.203 309.496 223.375 315.535C223.089 317.749 222.758 319.925 222.449 322.199C222.411 322.229 222.374 322.274 222.321 322.304H222.313Z" fill="#64BCA6"/>
<path d="M76.1451 269.312C72.3309 264.342 68.881 259.103 65.8223 253.636C55.2527 234.868 49.043 213.961 47.6538 192.467C47.6538 192.407 47.714 192.354 47.714 192.301C54.0086 190.584 60.1903 192.023 66.3117 194.673C68.1413 195.501 69.9635 196.382 71.8383 197.384C66.8162 222.991 68.2995 248.335 76.1451 269.312Z" fill="#64BCA6"/>
<path d="M222.313 322.304C203.894 326.616 184.8 327.21 166.149 324.05C147.498 320.89 129.665 314.04 113.694 303.902C73.615 278.528 50.4922 236.461 47.6611 192.474L47.7214 192.309C57.3891 189.673 66.7858 194.417 76.16 199.868C73.9614 217.239 76.9581 235.934 85.8578 253.32C107.573 295.74 156.213 314.263 194.492 294.671C202.897 290.37 210.357 284.43 216.433 277.203C220.883 283.061 223.834 290.025 224.504 297.374C224.994 303.428 224.203 309.496 223.375 315.535C223.089 317.749 222.758 319.925 222.449 322.199C222.411 322.229 222.374 322.274 222.321 322.304H222.313Z" fill="#4DA690"/>
<path d="M728.875 380H680.438V191.875H618.406V151.562H790.906V191.875H728.875V380ZM887.944 202.031C904.09 202.031 917.996 205.156 929.663 211.406C941.329 217.552 950.34 226.51 956.694 238.281C963.048 250.052 966.225 264.427 966.225 281.406V304.531H853.569C854.09 317.969 858.1 328.542 865.6 336.25C873.204 343.854 883.725 347.656 897.163 347.656C908.308 347.656 918.517 346.51 927.788 344.219C937.058 341.927 946.59 338.49 956.381 333.906V370.781C947.735 375.052 938.673 378.177 929.194 380.156C919.819 382.135 908.413 383.125 894.975 383.125C877.475 383.125 861.954 379.896 848.413 373.438C834.975 366.979 824.402 357.135 816.694 343.906C809.09 330.677 805.288 314.01 805.288 293.906C805.288 273.49 808.725 256.51 815.6 242.969C822.579 229.323 832.267 219.115 844.663 212.344C857.058 205.469 871.485 202.031 887.944 202.031ZM888.256 235.938C878.985 235.938 871.277 238.906 865.131 244.844C859.09 250.781 855.6 260.104 854.663 272.812H921.538C921.433 265.729 920.131 259.427 917.631 253.906C915.235 248.385 911.59 244.01 906.694 240.781C901.902 237.552 895.756 235.938 888.256 235.938ZM1096.08 202.031C1098.47 202.031 1101.23 202.188 1104.36 202.5C1107.59 202.708 1110.19 203.021 1112.17 203.438L1108.58 248.125C1107.01 247.604 1104.77 247.24 1101.86 247.031C1099.04 246.719 1096.6 246.562 1094.51 246.562C1088.37 246.562 1082.38 247.344 1076.54 248.906C1070.81 250.469 1065.66 253.021 1061.08 256.562C1056.49 260 1052.85 264.583 1050.14 270.312C1047.53 275.938 1046.23 282.865 1046.23 291.094V380H998.575V205.312H1034.67L1041.7 234.688H1044.04C1047.48 228.75 1051.75 223.333 1056.86 218.438C1062.06 213.438 1067.95 209.479 1074.51 206.562C1081.18 203.542 1088.37 202.031 1096.08 202.031ZM1234.99 202.031C1237.38 202.031 1240.14 202.188 1243.27 202.5C1246.5 202.708 1249.1 203.021 1251.08 203.438L1247.49 248.125C1245.92 247.604 1243.69 247.24 1240.77 247.031C1237.96 246.719 1235.51 246.562 1233.42 246.562C1227.28 246.562 1221.29 247.344 1215.46 248.906C1209.73 250.469 1204.57 253.021 1199.99 256.562C1195.4 260 1191.76 264.583 1189.05 270.312C1186.45 275.938 1185.14 282.865 1185.14 291.094V380H1137.49V205.312H1173.58L1180.61 234.688H1182.96C1186.39 228.75 1190.66 223.333 1195.77 218.438C1200.98 213.438 1206.86 209.479 1213.42 206.562C1220.09 203.542 1227.28 202.031 1234.99 202.031ZM1347.96 201.719C1371.4 201.719 1389.37 206.823 1401.87 217.031C1414.37 227.24 1420.62 242.76 1420.62 263.594V380H1387.34L1378.12 356.25H1376.87C1371.87 362.5 1366.76 367.604 1361.56 371.562C1356.35 375.521 1350.36 378.438 1343.59 380.312C1336.82 382.188 1328.59 383.125 1318.9 383.125C1308.59 383.125 1299.32 381.146 1291.09 377.188C1282.96 373.229 1276.56 367.188 1271.87 359.062C1267.18 350.833 1264.84 340.417 1264.84 327.812C1264.84 309.271 1271.35 295.625 1284.37 286.875C1297.39 278.021 1316.92 273.125 1342.96 272.188L1373.28 271.25V263.594C1373.28 254.427 1370.88 247.708 1366.09 243.438C1361.3 239.167 1354.63 237.031 1346.09 237.031C1337.65 237.031 1329.37 238.229 1321.24 240.625C1313.12 243.021 1304.99 246.042 1296.87 249.688L1281.09 217.5C1290.36 212.604 1300.72 208.75 1312.18 205.938C1323.74 203.125 1335.67 201.719 1347.96 201.719ZM1373.28 299.062L1354.84 299.688C1339.42 300.104 1328.69 302.865 1322.65 307.969C1316.71 313.073 1313.74 319.792 1313.74 328.125C1313.74 335.417 1315.88 340.625 1320.15 343.75C1324.42 346.771 1329.99 348.281 1336.87 348.281C1347.08 348.281 1355.67 345.26 1362.65 339.219C1369.73 333.177 1373.28 324.583 1373.28 313.438V299.062ZM1585.31 328.125C1585.31 340 1582.5 350.052 1576.88 358.281C1571.35 366.406 1563.07 372.604 1552.03 376.875C1540.99 381.042 1527.24 383.125 1510.78 383.125C1498.59 383.125 1488.12 382.344 1479.38 380.781C1470.73 379.219 1461.98 376.615 1453.12 372.969V333.594C1462.6 337.865 1472.76 341.406 1483.59 344.219C1494.53 346.927 1504.11 348.281 1512.34 348.281C1521.61 348.281 1528.23 346.927 1532.19 344.219C1536.25 341.406 1538.28 337.76 1538.28 333.281C1538.28 330.365 1537.45 327.76 1535.78 325.469C1534.22 323.073 1530.78 320.417 1525.47 317.5C1520.16 314.479 1511.82 310.573 1500.47 305.781C1489.53 301.198 1480.52 296.562 1473.44 291.875C1466.46 287.188 1461.25 281.667 1457.81 275.312C1454.48 268.854 1452.81 260.677 1452.81 250.781C1452.81 234.635 1459.06 222.5 1471.56 214.375C1484.17 206.146 1500.99 202.031 1522.03 202.031C1532.86 202.031 1543.18 203.125 1552.97 205.312C1562.86 207.5 1573.02 210.99 1583.44 215.781L1569.06 250.156C1560.42 246.406 1552.24 243.333 1544.53 240.938C1536.93 238.542 1529.17 237.344 1521.25 237.344C1514.27 237.344 1509.01 238.281 1505.47 240.156C1501.93 242.031 1500.16 244.896 1500.16 248.75C1500.16 251.562 1501.04 254.062 1502.81 256.25C1504.69 258.438 1508.23 260.885 1513.44 263.594C1518.75 266.198 1526.51 269.583 1536.72 273.75C1546.61 277.812 1555.21 282.083 1562.5 286.562C1569.79 290.938 1575.42 296.406 1579.38 302.969C1583.33 309.427 1585.31 317.812 1585.31 328.125ZM1687.04 383.125C1669.75 383.125 1655.01 380 1642.82 373.75C1630.63 367.396 1621.36 357.604 1615.01 344.375C1608.65 331.146 1605.47 314.219 1605.47 293.594C1605.47 272.24 1609.07 254.844 1616.26 241.406C1623.55 227.865 1633.6 217.917 1646.41 211.562C1659.33 205.208 1674.28 202.031 1691.26 202.031C1703.34 202.031 1713.76 203.229 1722.51 205.625C1731.36 207.917 1739.07 210.677 1745.63 213.906L1731.57 250.781C1724.07 247.76 1717.09 245.312 1710.63 243.438C1704.17 241.458 1697.71 240.469 1691.26 240.469C1682.92 240.469 1676 242.448 1670.47 246.406C1664.95 250.26 1660.84 256.094 1658.13 263.906C1655.42 271.719 1654.07 281.51 1654.07 293.281C1654.07 304.844 1655.53 314.427 1658.44 322.031C1661.36 329.635 1665.58 335.312 1671.1 339.062C1676.62 342.708 1683.34 344.531 1691.26 344.531C1701.15 344.531 1709.95 343.229 1717.66 340.625C1725.37 337.917 1732.87 334.167 1740.16 329.375V370.156C1732.87 374.74 1725.21 378.021 1717.19 380C1709.28 382.083 1699.22 383.125 1687.04 383.125ZM1933.14 292.344C1933.14 306.927 1931.16 319.844 1927.2 331.094C1923.35 342.344 1917.67 351.875 1910.17 359.688C1902.77 367.396 1893.81 373.229 1883.29 377.188C1872.88 381.146 1861.11 383.125 1847.98 383.125C1835.69 383.125 1824.39 381.146 1814.07 377.188C1803.87 373.229 1794.96 367.396 1787.36 359.688C1779.86 351.875 1774.02 342.344 1769.86 331.094C1765.79 319.844 1763.76 306.927 1763.76 292.344C1763.76 272.969 1767.2 256.562 1774.07 243.125C1780.95 229.688 1790.74 219.479 1803.45 212.5C1816.16 205.521 1831.31 202.031 1848.92 202.031C1865.27 202.031 1879.75 205.521 1892.36 212.5C1905.06 219.479 1915.01 229.688 1922.2 243.125C1929.49 256.562 1933.14 272.969 1933.14 292.344ZM1812.36 292.344C1812.36 303.802 1813.61 313.438 1816.11 321.25C1818.61 329.062 1822.51 334.948 1827.82 338.906C1833.14 342.865 1840.06 344.844 1848.61 344.844C1857.04 344.844 1863.87 342.865 1869.07 338.906C1874.39 334.948 1878.24 329.062 1880.64 321.25C1883.14 313.438 1884.39 303.802 1884.39 292.344C1884.39 280.781 1883.14 271.198 1880.64 263.594C1878.24 255.885 1874.39 250.104 1869.07 246.25C1863.76 242.396 1856.84 240.469 1848.29 240.469C1835.69 240.469 1826.52 244.792 1820.79 253.438C1815.17 262.083 1812.36 275.052 1812.36 292.344ZM2063.3 202.031C2082.99 202.031 2098.87 209.688 2110.96 225C2123.14 240.312 2129.24 262.76 2129.24 292.344C2129.24 312.135 2126.37 328.802 2120.64 342.344C2114.91 355.781 2107 365.938 2096.89 372.812C2086.79 379.688 2075.18 383.125 2062.05 383.125C2053.61 383.125 2046.37 382.083 2040.33 380C2034.29 377.812 2029.13 375.052 2024.86 371.719C2020.59 368.281 2016.89 364.635 2013.77 360.781H2011.27C2012.1 364.948 2012.73 369.219 2013.14 373.594C2013.56 377.969 2013.77 382.24 2013.77 386.406V456.875H1966.11V205.312H2004.86L2011.58 227.969H2013.77C2016.89 223.281 2020.7 218.958 2025.18 215C2029.65 211.042 2035.02 207.917 2041.27 205.625C2047.62 203.229 2054.97 202.031 2063.3 202.031ZM2047.99 240.156C2039.65 240.156 2033.04 241.875 2028.14 245.312C2023.25 248.75 2019.65 253.906 2017.36 260.781C2015.18 267.656 2013.98 276.354 2013.77 286.875V292.031C2013.77 303.281 2014.81 312.812 2016.89 320.625C2019.08 328.438 2022.68 334.375 2027.68 338.438C2032.78 342.5 2039.76 344.531 2048.61 344.531C2055.9 344.531 2061.89 342.5 2066.58 338.438C2071.27 334.375 2074.76 328.438 2077.05 320.625C2079.45 312.708 2080.64 303.073 2080.64 291.719C2080.64 274.635 2077.99 261.771 2072.68 253.125C2067.36 244.479 2059.13 240.156 2047.99 240.156ZM2234.24 202.031C2250.39 202.031 2264.3 205.156 2275.96 211.406C2287.63 217.552 2296.64 226.51 2302.99 238.281C2309.35 250.052 2312.53 264.427 2312.53 281.406V304.531H2199.87C2200.39 317.969 2204.4 328.542 2211.9 336.25C2219.5 343.854 2230.03 347.656 2243.46 347.656C2254.61 347.656 2264.82 346.51 2274.09 344.219C2283.36 341.927 2292.89 338.49 2302.68 333.906V370.781C2294.04 375.052 2284.97 378.177 2275.49 380.156C2266.12 382.135 2254.71 383.125 2241.28 383.125C2223.78 383.125 2208.25 379.896 2194.71 373.438C2181.28 366.979 2170.7 357.135 2162.99 343.906C2155.39 330.677 2151.59 314.01 2151.59 293.906C2151.59 273.49 2155.03 256.51 2161.9 242.969C2168.88 229.323 2178.57 219.115 2190.96 212.344C2203.36 205.469 2217.79 202.031 2234.24 202.031ZM2234.56 235.938C2225.29 235.938 2217.58 238.906 2211.43 244.844C2205.39 250.781 2201.9 260.104 2200.96 272.812H2267.84C2267.73 265.729 2266.43 259.427 2263.93 253.906C2261.54 248.385 2257.89 244.01 2252.99 240.781C2248.2 237.552 2242.06 235.938 2234.56 235.938Z" fill="#173C57"/>
</svg>
